<?xml version="1.0" encoding="UTF-8"?>
<svg width="18px" height="18px" viewBox="0 0 18 18" version="1.1" xmlns="http://www.w3.org/2000/svg" xmlns:xlink="http://www.w3.org/1999/xlink">
    <title>restaurant-outline</title>
    <g id="Header" stroke="none" stroke-width="1" fill="none" fill-rule="evenodd" stroke-linejoin="round">
        <g id="CKE-New-Nav---Rev-1" transform="translate(-1183.000000, -17.000000)" stroke="#FFC72C">
            <g id="Location" transform="translate(165.000000, 16.000000)">
                <g id="Group-17" transform="translate(23.000000, 0.000000)">
                    <g id="Group-4" transform="translate(996.000000, 0.000000)">
                        <g id="restaurant-outline" transform="translate(0.000000, 2.000000)">
                            <path d="M0.910069429,0.562153576 L14.0685346,13.7206187 C14.5884549,14.2405762 14.5884549,15.0835544 14.0685346,15.6035118 L14.0685346,15.6035118 C13.5484955,16.123235 12.7056806,16.123235 12.1856416,15.6035118 L8.97129456,12.3338066 C8.76094118,12.1202073 8.64293717,11.8325084 8.64271686,11.5327199 L8.64271686,11.3352161 C8.64277534,11.0294574 8.52031394,10.7364247 8.30271038,10.5216292 L7.88770247,10.1384076 C7.60140441,9.87423644 7.20026602,9.77408645 6.82339646,9.87268824 L6.82339646,9.87268824 C6.22832775,10.0279949 5.59552131,9.85633805 5.16050761,9.42160821 L2.10937801,6.37012146 C0.299343499,4.56008695 -0.36674063,1.82682055 0.910069429,0.562153576 Z" id="Path"></path>
                            <path d="M13.1428027,0 L10.3838215,2.75898118 C9.95505021,3.18766087 9.71416271,3.76913117 9.71416586,4.37544057 L9.71416586,4.90616497 C9.71419036,5.05781702 9.65393201,5.20325935 9.54666267,5.3104584 L9.1427264,5.71439467" id="Path" stroke-linecap="round"></path>
                            <path d="M10.2856053,6.8572736 L10.6895416,6.45333733 C10.7967406,6.34606799 10.942183,6.28580964 11.093835,6.28583414 L11.6245594,6.28583414 C12.2308688,6.28583729 12.8123391,6.04494979 13.2410188,5.61617851 L16,2.85719733" id="Path" stroke-linecap="round"></path>
                            <line x1="14.5714013" y1="1.42859867" x2="11.714204" y2="4.285796" id="Path" stroke-linecap="round"></line>
                            <path d="M5.99980933,12.0002288 L2.43831285,15.5817257 C1.88044529,16.1394248 0.976141905,16.1394248 0.418274338,15.5817257 L0.418274338,15.5817257 C-0.139424779,15.0238581 -0.139424779,14.1195547 0.418274338,13.5616871 L3.42833173,10.5716301" id="Path" stroke-linecap="round"></path>
                        </g>
                    </g>
                </g>
            </g>
        </g>
    </g>
</svg>