<?xml version="1.0" encoding="UTF-8"?>
<svg width="17px" height="18px" viewBox="0 0 17 18" version="1.1" xmlns="http://www.w3.org/2000/svg" xmlns:xlink="http://www.w3.org/1999/xlink">
    <title>gift-outline</title>
    <g id="Header" stroke="none" stroke-width="1" fill="none" fill-rule="evenodd" stroke-linecap="round">
        <g id="CKE-New-Nav---Rev-1" transform="translate(-946.000000, -17.000000)" stroke="#FFC72C">
            <g id="Location" transform="translate(165.000000, 16.000000)">
                <g id="Group-17" transform="translate(23.000000, 0.000000)">
                    <g id="Group" transform="translate(759.000000, 0.000000)">
                        <g id="gift-outline" transform="translate(0.000000, 2.000000)">
                            <path d="M7.38461538,2.15384615 L7.38461538,4.30769231 L9.53846154,4.30769231 C10.7279979,4.30769231 11.6923077,3.34338254 11.6923077,2.15384615 C11.6923077,0.96430977 10.7279979,0 9.53846154,0 C8.34892515,0 7.38461538,0.96430977 7.38461538,2.15384615 L7.38461538,2.15384615 Z" id="Path"></path>
                            <path d="M7.38461538,2.15384615 C7.38461538,2.74846154 7.38461538,4.30769231 7.38461538,4.30769231 L5.23076923,4.30769231 C4.04123285,4.30769231 3.07692308,3.34338254 3.07692308,2.15384615 C3.07692308,0.96430977 4.04123285,0 5.23076923,0 C6.42030562,0 7.38461538,0.96430977 7.38461538,2.15384615 L7.38461538,2.15384615 Z" id="Path"></path>
                            <rect id="Rectangle" stroke-linejoin="round" x="0" y="4.30769231" width="14.7692308" height="4.30769231" rx="2.15384615"></rect>
                            <path d="M13.5384615,8.61538462 L13.5384615,14.1538462 C13.5384615,15.1734488 12.7119103,16 11.6923077,16 L3.07692308,16 C2.05732046,16 1.23076923,15.1734488 1.23076923,14.1538462 L1.23076923,8.61538462" id="Path" stroke-linejoin="round"></path>
                            <line x1="7.42252747" y1="4.30769231" x2="7.42252747" y2="16" id="Path" stroke-linejoin="round"></line>
                        </g>
                    </g>
                </g>
            </g>
        </g>
    </g>
</svg>