<?xml version="1.0" encoding="UTF-8"?>
<svg width="17px" height="18px" viewBox="0 0 17 18" version="1.1" xmlns="http://www.w3.org/2000/svg" xmlns:xlink="http://www.w3.org/1999/xlink">
    <title>bag-outline copy</title>
    <g id="Header" stroke="none" stroke-width="1" fill="none" fill-rule="evenodd" stroke-linecap="round" stroke-linejoin="round">
        <g id="CKE-New-Nav---Rev-1" transform="translate(-1057.000000, -17.000000)" stroke="#FFC72C">
            <g id="Location" transform="translate(165.000000, 16.000000)">
                <g id="Group-17" transform="translate(23.000000, 0.000000)">
                    <g id="Group-3" transform="translate(870.000000, 0.000000)">
                        <g id="bag-outline-copy" transform="translate(0.000000, 2.000000)">
                            <path d="M0.615384615,4.92307692 C0.275517077,4.92307692 0,5.198594 0,5.53846154 L0,13.8461538 C0,15.0092308 0.990769231,16 2.15384615,16 L12.6153846,16 C13.7784615,16 14.7692308,15.0573077 14.7692308,13.8942308 L14.7692308,5.53846154 C14.7692308,5.198594 14.4937137,4.92307692 14.1538462,4.92307692 L0.615384615,4.92307692 Z" id="Path"></path>
                            <path d="M3.69230769,4.92307692 L3.69230769,3.69230769 C3.69230769,1.65310246 5.34541015,0 7.38461538,0 L7.38461538,0 C9.42382061,0 11.0769231,1.65310246 11.0769231,3.69230769 L11.0769231,4.92307692" id="Path"></path>
                        </g>
                    </g>
                </g>
            </g>
        </g>
    </g>
</svg>