<?xml version="1.0" encoding="UTF-8"?>
<svg width="32px" height="32px" viewBox="0 0 32 32" version="1.1" xmlns="http://www.w3.org/2000/svg" xmlns:xlink="http://www.w3.org/1999/xlink">
    <title>fast-food-outline</title>
    <g id="Header" stroke="none" stroke-width="1" fill="none" fill-rule="evenodd" stroke-linecap="round">
        <g id="CKE-New-Nav---Rev-1" transform="translate(-1160.000000, -80.000000)" stroke="#000000" stroke-width="2">
            <g id="Group-19" transform="translate(368.000000, 73.000000)">
                <g id="Group-13" transform="translate(773.000000, 0.000000)">
                    <g id="fast-food-outline" transform="translate(20.000000, 8.000000)">
                        <path d="M19.4196429,25.7142857 C19.4196429,28.0814732 18.0368304,30 15.6696429,30 L6.83035714,30 C4.46316964,30 3.08035714,28.0814732 3.08035714,25.7142857" id="Path"></path>
                        <path d="M20.3571429,20.3571429 C21.5404018,20.3571429 22.5,21.5564732 22.5,23.0357143 L22.5,23.0357143 C22.5,24.5149554 21.5404018,25.7142857 20.3571429,25.7142857 L2.14285714,25.7142857 C0.959598214,25.7142857 0,24.5149554 0,23.0357143 L0,23.0357143 C0,21.5564732 0.959598214,20.3571429 2.14285714,20.3571429" id="Path"></path>
                        <path d="M20.8928571,20.3571429 L9.86450893,20.3571429 C9.72261794,20.3572086 9.58654859,20.413563 9.48616071,20.5138393 L7.68950893,22.3104911 C7.63926743,22.3607885 7.57109176,22.38905 7.5,22.38905 C7.42890824,22.38905 7.36073257,22.3607885 7.31049107,22.3104911 L5.51383929,20.5138393 C5.41345141,20.413563 5.27738206,20.3572086 5.13549107,20.3571429 L1.60714286,20.3571429 C0.719542366,20.3571429 0,19.6376005 0,18.75 L0,18.75 C0,17.8623995 0.719542366,17.1428571 1.60714286,17.1428571 L20.8928571,17.1428571 C21.7804576,17.1428571 22.5,17.8623995 22.5,18.75 L22.5,18.75 C22.5,19.6376005 21.7804576,20.3571429 20.8928571,20.3571429 Z" id="Path"></path>
                        <path d="M2.14285714,16.3392857 L2.14285714,16.3245536 C2.14285714,12.6415179 5.15625,10.7142857 8.83928571,10.7142857 L13.6607143,10.7142857 C17.34375,10.7142857 20.3571429,12.65625 20.3571429,16.3392857 L20.3571429,16.3245536" id="Path"></path>
                        <line x1="13.9955357" y1="5.35714286" x2="14.49375" y2="9.64084821" id="Path"></line>
                        <path d="M15,30 L24.3287946,30 C25.4501597,30 26.381873,29.1354206 26.465625,28.0171875 L28.8616071,5.35714286" id="Path"></path>
                        <polyline id="Path" stroke-linejoin="round" points="22.5 5.35714286 23.5714286 1.07142857 26.71875 0"></polyline>
                        <line x1="12.8571429" y1="5.41741071" x2="30" y2="5.41741071" id="Path"></line>
                    </g>
                </g>
            </g>
        </g>
    </g>
</svg>