<?xml version="1.0" encoding="UTF-8"?>
<svg width="48px" height="26px" viewBox="0 0 48 26" version="1.1" xmlns="http://www.w3.org/2000/svg" xmlns:xlink="http://www.w3.org/1999/xlink">
    <title>ORDERNOW</title>
    <g id="Header" stroke="none" stroke-width="1" fill="none" fill-rule="evenodd">
        <g id="CKE-New-Nav---Rev-1" transform="translate(-1204.000000, -85.000000)" fill="#000000" fill-rule="nonzero">
            <g id="Group-19" transform="translate(368.000000, 73.000000)">
                <g id="Group-13" transform="translate(773.000000, 0.000000)">
                    <path d="M67.4987778,23.168 C70.5087778,23.168 72.0207778,20.998 72.0207778,17.974 C72.0207778,15.734 71.0407778,12.78 67.4987778,12.78 C63.9567778,12.78 62.9767778,15.734 62.9767778,17.974 C62.9767778,20.998 64.4887778,23.168 67.4987778,23.168 Z M67.4987778,21.026 C66.1967778,21.026 65.7067778,19.892 65.7067778,17.974 C65.7067778,16.028 66.2247778,14.866 67.4987778,14.866 C68.7727778,14.866 69.2907778,16.028 69.2907778,17.974 C69.2907778,19.892 68.8007778,21.026 67.4987778,21.026 Z M76.4556667,23 L76.4556667,19.374 L77.7296667,19.374 L79.1716667,23 L82.1676667,23 L80.1656667,18.59 C81.0896667,18.1 81.6916667,17.232 81.6916667,15.986 C81.6916667,13.97 80.3196667,12.948 77.5896667,12.948 L73.7256667,12.948 L73.7256667,23 L76.4556667,23 Z M77.5476667,17.246 L76.4556667,17.246 L76.4556667,15.174 L77.6736667,15.174 C78.2196667,15.174 78.9336667,15.286 78.9336667,16.196 C78.9336667,17.12 78.1076667,17.246 77.5476667,17.246 Z M87.0085556,23 C90.2285556,23 92.0905556,21.138 92.0905556,17.792 C92.0905556,14.53 90.3265556,12.948 87.1205556,12.948 L83.5365556,12.948 L83.5365556,23 L87.0085556,23 Z M87.1345556,20.662 L86.2665556,20.662 L86.2665556,15.286 L87.2325556,15.286 C88.6745556,15.286 89.3605556,16.21 89.3605556,17.876 C89.3605556,19.584 88.6745556,20.662 87.1345556,20.662 Z M100.935444,23 L100.935444,20.774 L96.5254444,20.774 L96.5254444,18.94 L99.5914444,18.94 L99.5914444,16.784 L96.5254444,16.784 L96.5254444,15.174 L100.851444,15.174 L100.851444,12.948 L93.7954444,12.948 L93.7954444,23 L100.935444,23 Z M105.258333,23 L105.258333,19.374 L106.532333,19.374 L107.974333,23 L110.970333,23 L108.968333,18.59 C109.892333,18.1 110.494333,17.232 110.494333,15.986 C110.494333,13.97 109.122333,12.948 106.392333,12.948 L102.528333,12.948 L102.528333,23 L105.258333,23 Z M106.350333,17.246 L105.258333,17.246 L105.258333,15.174 L106.476333,15.174 C107.022333,15.174 107.736333,15.286 107.736333,16.196 C107.736333,17.12 106.910333,17.246 106.350333,17.246 Z M73.4106667,37 L73.4106667,31.12 L73.4386667,31.12 L76.7846667,37 L79.4866667,37 L79.4866667,26.948 L76.9526667,26.948 L76.9526667,32.464 L76.9246667,32.464 L73.9286667,26.948 L70.8766667,26.948 L70.8766667,37 L73.4106667,37 Z M85.7135556,37.168 C88.7235556,37.168 90.2355556,34.998 90.2355556,31.974 C90.2355556,29.734 89.2555556,26.78 85.7135556,26.78 C82.1715556,26.78 81.1915556,29.734 81.1915556,31.974 C81.1915556,34.998 82.7035556,37.168 85.7135556,37.168 Z M85.7135556,35.026 C84.4115556,35.026 83.9215556,33.892 83.9215556,31.974 C83.9215556,30.028 84.4395556,28.866 85.7135556,28.866 C86.9875556,28.866 87.5055556,30.028 87.5055556,31.974 C87.5055556,33.892 87.0155556,35.026 85.7135556,35.026 Z M96.2524444,37 L97.3864444,31.33 L97.4144444,31.33 L98.5064444,37 L101.166444,37 L103.770444,26.948 L101.012444,26.948 L99.8224444,32.968 L99.7944444,32.968 L98.8284444,26.948 L96.1124444,26.948 L94.9644444,33.066 L94.9364444,33.066 L93.9144444,26.948 L90.9604444,26.948 L93.4944444,37 L96.2524444,37 Z" id="ORDERNOW"></path>
                </g>
            </g>
        </g>
    </g>
</svg>