<svg xmlns="http://www.w3.org/2000/svg" width="8" height="18" viewBox="0 0 8 18"><g><g><path fill="#fff" d="M2.643.925C3.306.258 4.248.033 5.137.005c.94-.009 1.88-.003 2.82-.003.004 1.048.004 2.097 0 3.145-.608-.001-1.216.002-1.823-.001-.386-.025-.781.283-.851.687-.01.701-.004 1.403-.003 2.104.89.004 1.782 0 2.673.003a41.326 41.326 0 0 1-.324 3.03c-.787.008-1.575 0-2.362.005-.007 2.993.004 5.985-.005 8.978-1.17.005-2.34-.002-3.508.003-.023-2.993.001-5.987-.013-8.98-.57-.007-1.14.004-1.711-.006.002-1.006 0-2.012.001-3.018.57-.007 1.14.002 1.71-.004.018-.978-.017-1.957.019-2.935.057-.774.336-1.553.883-2.088z"/></g></g></svg>