<svg xmlns="http://www.w3.org/2000/svg" width="19" height="18" viewBox="0 0 19 18"><g><g><path fill="#fff" d="M17.149 14.53c0 .952-.817 1.726-1.82 1.726H3.671c-1.004 0-1.82-.774-1.82-1.727V7.152h2.835a4.682 4.682 0 0 0-.382 1.85c0 2.716 2.33 4.928 5.195 4.928s5.195-2.212 5.195-4.928c0-.654-.138-1.278-.383-1.85h2.837zM6.787 7.151a3.396 3.396 0 0 1 2.708-1.32c1.114 0 2.1.523 2.707 1.32.395.521.632 1.158.632 1.848 0 1.747-1.5 3.168-3.34 3.168-1.84 0-3.339-1.421-3.339-3.168 0-.69.237-1.327.632-1.848zm9.594-5.078l.42-.001v3.05l-3.21.01-.01-3.05zM15.328 0H3.672C1.647 0 0 1.56 0 3.478v11.044C0 16.44 1.647 18 3.672 18h11.656C17.353 18 19 16.44 19 14.522V3.478C19 1.56 17.353 0 15.328 0z"/></g></g></svg>