<svg xmlns="http://www.w3.org/2000/svg" width="23" height="19" viewBox="0 0 23 19"><g><g><path fill="#fff" d="M23 2.25a9.27 9.27 0 0 1-2.71.754A4.792 4.792 0 0 0 22.365.35c-.912.55-1.922.95-2.997 1.165A4.677 4.677 0 0 0 15.924 0c-2.606 0-4.718 2.148-4.718 4.797 0 .375.041.741.122 1.093-3.922-.2-7.4-2.11-9.727-5.012A4.833 4.833 0 0 0 .963 3.29c0 1.664.833 3.132 2.099 3.992a4.647 4.647 0 0 1-2.138-.6v.06c0 2.324 1.627 4.262 3.785 4.704a4.672 4.672 0 0 1-2.13.081c.6 1.906 2.342 3.293 4.407 3.332A9.37 9.37 0 0 1 0 16.845 13.196 13.196 0 0 0 7.233 19c8.68 0 13.426-7.309 13.426-13.648 0-.207-.004-.415-.013-.62A9.646 9.646 0 0 0 23 2.248z"/></g></g></svg>