<?xml version="1.0" encoding="UTF-8"?>
<svg width="191px" height="48px" viewBox="0 0 191 48" version="1.1" xmlns="http://www.w3.org/2000/svg" xmlns:xlink="http://www.w3.org/1999/xlink">
    <!-- Generator: sketchtool 64 (101010) - https://sketch.com -->
    <title>4A3B2DCA-B5FA-48A0-94DD-1405F413182D</title>
    <desc>Created with sketchtool.</desc>
    <g id="Store---Selector" stroke="none" stroke-width="1" fill="none" fill-rule="evenodd">
        <g id="Dark-Find-A-Location_Delivery-Modal-Copy" transform="translate(-515.000000, -624.000000)">
            <g id="modal" transform="translate(449.000000, 446.000000)">
                <g id="btn-ubereats" transform="translate(66.500000, 178.000000)">
                    <rect id="Rectangle" fill="#000000" x="0" y="0" width="190" height="48" rx="24"></rect>
                    <g id="Uber_Eats_2018_logo" transform="translate(39.500000, 14.000000)" fill-rule="nonzero">
                        <path d="M53.1245991,7.35984685 C51.4158401,7.35984685 50.203777,8.69686486 50.203777,10.74925 L50.203777,18.277786 L47.5953423,18.277786 L47.5953423,5.02631306 L50.1725383,5.02631306 L50.1725383,6.64447973 C50.819897,5.55229693 52.0085478,4.89698438 53.2776689,4.93259685 L54.2148311,4.93259685 L54.2148311,7.35984685 L53.1245991,7.35984685 Z M45.7928671,11.6520495 C45.7928671,7.7003491 42.9813806,4.74516441 39.1765023,4.74516441 C37.3607599,4.75749127 35.6249098,5.4934503 34.3536257,6.78994898 C33.0823416,8.08644766 32.3806119,9.8364153 32.4039437,11.6520495 C32.4039437,15.6006261 35.4497207,18.5870495 39.4232883,18.5870495 C41.6757582,18.6295982 43.8081669,17.5738811 45.1399775,15.7568198 L43.2469099,14.3698198 C42.3653481,15.6001984 40.9367113,16.3203528 39.4232883,16.29725 C37.2288705,16.2868986 35.3708278,14.6757102 35.0498649,12.5048671 L45.7991149,12.5048671 L45.7928671,11.6520495 Z M35.1060946,10.4368626 C35.5715518,8.41571622 37.1865946,7.04745946 39.1452635,7.04745946 C41.1039324,7.04745946 42.7158514,8.41571622 43.1531937,10.4368626 L35.1060946,10.4368626 Z M24.1412973,4.74516441 C22.3805771,4.74664226 20.6934927,5.45184356 19.4554865,6.70383333 L19.4554865,0.0780968468 L16.8470518,0.0780968468 L16.8470518,18.277786 L19.4242477,18.277786 L19.4242477,16.5971419 C20.6727657,17.8601674 22.3716211,18.5758889 24.147545,18.5870495 C26.6552108,18.6403288 28.9955305,17.3329814 30.2649964,15.1697239 C31.5344622,13.0064664 31.5344622,10.3257475 30.2649964,8.16249008 C28.9955305,5.99923261 26.6552108,4.69188514 24.147545,4.74516441 L24.1412973,4.74516441 Z M23.9538649,16.256692 C22.0944158,16.2654896 20.413424,15.151359 19.697163,13.4353755 C18.9809019,11.7193921 19.3709697,9.74078967 20.6849146,8.42504731 C21.9988595,7.10930494 23.9769268,6.71653263 25.6938879,7.43044718 C27.4108489,8.14436172 28.5272764,9.82382885 28.5209951,11.6832883 C28.5226345,12.8944958 28.0417937,14.0564836 27.1847538,14.9123511 C26.3277139,15.7682186 25.165069,16.2474682 23.9538649,16.2441441 L23.9538649,16.256692 Z M7.24113964,16.1316847 C9.75898198,16.1316847 11.714527,14.2011306 11.714527,11.3084234 L11.714527,0.0780968468 L14.4166779,0.0780968468 L14.4166779,18.277786 L11.7457658,18.277786 L11.7457658,16.5565315 C10.4847606,17.8597838 8.74528337,18.590116 6.93187613,18.5778342 C3.0489009,18.5778342 0.0593536036,15.7474482 0.0593536036,11.4552455 L0.0593536036,0.0780968468 L2.81148649,0.0780968468 L2.81148649,11.3240428 C2.81148649,14.2323694 4.68581081,16.1316847 7.24113964,16.1316847 L7.24113964,16.1316847 Z" id="Shape" fill="#FFFFFF"></path>
                        <path d="M60.7031171,0.0780968468 L73.4703896,0.0780968468 L73.4703896,3.20197072 L64.1518739,3.20197072 L64.1518739,7.63787162 L73.2111081,7.63787162 L73.2111081,10.6555338 L64.1518739,10.6555338 L64.1518739,15.1664077 L73.4703896,15.1664077 L73.4703896,18.2902815 L60.7031171,18.2902815 L60.7031171,0.0780968468 Z M108.729554,18.6182883 C112.643768,18.6182883 114.849223,16.743964 114.849223,14.1698919 C114.849223,12.3361779 113.543444,10.9679212 110.810054,10.3743851 L107.920471,9.78397297 C106.24295,9.47158559 105.715016,9.1591982 105.715016,8.53442342 C105.715016,7.72534009 106.524099,7.22864414 108.014187,7.22864414 C109.62923,7.22864414 110.825673,7.66286261 111.138061,9.15607432 L114.52434,9.15607432 C114.340032,6.34458784 112.318885,4.48900676 108.220363,4.48900676 C104.67789,4.48900676 102.191286,5.95097973 102.191286,8.78433333 C102.191286,10.7430023 103.559543,12.0175428 106.511604,12.6391937 L109.741689,13.3857995 C111.01623,13.6357095 111.356732,13.9793356 111.356732,14.5072703 C111.356732,15.3475923 110.394579,15.875527 108.83889,15.875527 C106.883345,15.875527 105.764998,15.4413086 105.330779,13.9480968 L101.925757,13.9480968 C102.422453,16.7533356 104.502953,18.6182883 108.729554,18.6182883 Z M100.941736,18.277786 L97.2774324,18.277786 C94.9782613,18.277786 93.7037207,16.8470518 93.7037207,15.0414527 L93.7037207,7.88778153 L91.1265248,7.88778153 L91.1265248,4.83888063 L93.7162162,4.83888063 L93.7162162,1.01213514 L97.1212387,1.01213514 L97.1212387,4.83888063 L100.941736,4.83888063 L100.941736,7.88778153 L97.1212387,7.88778153 L97.1212387,14.1698919 C97.1212387,14.885259 97.6179347,15.2288851 98.3957793,15.2288851 L100.941736,15.2288851 L100.941736,18.277786 Z M86.2595293,4.84512838 L86.2595293,6.05719144 C85.0606628,5.04376392 83.540256,4.49008338 81.9704505,4.4952545 C79.4122084,4.44144445 77.0249273,5.77546919 75.7300201,7.98243848 C74.4351129,10.1894078 74.4351129,12.924135 75.7300201,15.1311043 C77.0249273,17.3380736 79.4122084,18.6720983 81.9704505,18.6182883 C83.5405428,18.6251033 85.0615002,18.0712222 86.2595293,17.0563514 L86.2595293,18.2715383 L89.6551802,18.2715383 L89.6551802,4.83888063 L86.2595293,4.84512838 Z M82.2515991,15.6693514 C80.5856942,15.6883549 79.0732849,14.6992986 78.4228514,13.1655006 C77.7724178,11.6317026 78.1127839,9.85694477 79.284507,8.67260312 C80.4562301,7.48826147 82.2272404,7.12890501 83.7679173,7.76287237 C85.3085943,8.39683973 86.3137937,9.89856824 86.3126351,11.5645811 C86.3226488,12.649199 85.8983563,13.6927506 85.1343226,14.4626524 C84.3702889,15.2325543 83.3300142,15.6648185 82.2453514,15.6631036 L82.2515991,15.6693514 Z" id="Shape" fill="#5FB709"></path>
                    </g>
                </g>
            </g>
        </g>
    </g>
</svg>