<?xml version="1.0" encoding="UTF-8"?>
<svg width="130px" height="43px" viewBox="0 0 130 43" version="1.1" xmlns="http://www.w3.org/2000/svg" xmlns:xlink="http://www.w3.org/1999/xlink">
    <!-- Generator: sketchtool 64 (101010) - https://sketch.com -->
    <title>56A4A35A-C1F9-4BC3-8EA9-0929C0A367C3</title>
    <desc>Created with sketchtool.</desc>
    <g id="Store---Selector" stroke="none" stroke-width="1" fill="none" fill-rule="evenodd">
        <g id="M.Homepage_Start_Order" transform="translate(-51.000000, -567.000000)">
            <g id="Modal">
                <g id="Group-3" transform="translate(14.000000, 183.000000)">
                    <g id="Group-12">
                        <g id="uber_eats_btn_mobile" transform="translate(37.000000, 384.000000)">
                            <rect id="Rectangle" fill="#000000" x="0" y="0" width="130" height="43" rx="21.5"></rect>
                            <g id="Uber_Eats_2018_logo" transform="translate(25.000000, 15.000000)" fill-rule="nonzero">
                                <path d="M36.7697297,5.09405405 C35.587027,5.09405405 34.7481081,6.01945946 34.7481081,7.44 L34.7481081,12.6508108 L32.9427027,12.6508108 L32.9427027,3.47891892 L34.7264865,3.47891892 L34.7264865,4.59891892 C35.1745502,3.84297408 35.9972646,3.38940519 36.8756757,3.41405405 L37.5243243,3.41405405 L37.5243243,5.09405405 L36.7697297,5.09405405 Z M31.6951351,8.06486486 C31.6951351,5.32972973 29.7491892,3.28432432 27.1156757,3.28432432 C25.8589254,3.29285625 24.6574718,3.8022439 23.7775636,4.6996042 C22.8976553,5.59696449 22.4119592,6.8081894 22.4281081,8.06486486 C22.4281081,10.7978378 24.5362162,12.8648649 27.2864865,12.8648649 C28.845514,12.8943146 30.3214421,12.1636091 31.2432432,10.9059459 L29.932973,9.94594595 C29.3228076,10.7975418 28.333989,11.2959904 27.2864865,11.28 C25.7676393,11.2728354 24.4816112,10.1576653 24.2594595,8.65513514 L31.6994595,8.65513514 L31.6951351,8.06486486 Z M24.2983784,7.22378378 C24.6205405,5.82486486 25.7383784,4.87783784 27.0940541,4.87783784 C28.4497297,4.87783784 29.5654054,5.82486486 29.8681081,7.22378378 L24.2983784,7.22378378 Z M16.7091892,3.28432432 C15.490522,3.2853472 14.3228212,3.77344615 13.4659459,4.64 L13.4659459,0.0540540541 L11.6605405,0.0540540541 L11.6605405,12.6508108 L13.4443243,12.6508108 L13.4443243,11.4875676 C14.3084751,12.3617597 15.4843232,12.8571401 16.7135135,12.8648649 C18.4491726,12.9017417 20.0690045,11.9968725 20.9476543,10.4995926 C21.8263041,9.00231273 21.8263041,7.14687646 20.9476543,5.6495966 C20.0690045,4.15231673 18.4491726,3.24744754 16.7135135,3.28432432 L16.7091892,3.28432432 Z M16.5794595,11.2519281 C15.2924579,11.2580173 14.1289741,10.4868815 13.6332202,9.29917845 C13.1374663,8.1114754 13.4074484,6.74200295 14.316884,5.8313233 C15.2263195,4.92064365 16.5954216,4.64878971 17.7838013,5.14291946 C18.9721809,5.63704921 19.7449065,6.79947779 19.7405589,8.08648649 C19.7416937,8.92481327 19.4088839,9.72907301 18.8156912,10.3214543 C18.2224985,10.9138355 17.4177839,11.245544 16.5794595,11.2432432 L16.5794595,11.2519281 Z M5.01189189,11.1654054 C6.75459459,11.1654054 8.10810811,9.82918919 8.10810811,7.82702703 L8.10810811,0.0540540541 L9.97837838,0.0540540541 L9.97837838,12.6508108 L8.12972973,12.6508108 L8.12972973,11.4594595 C7.25693598,12.3614942 6.05297191,12.8669873 4.79783784,12.8584866 C2.11027027,12.8584866 0.0410810811,10.8994595 0.0410810811,7.92864865 L0.0410810811,0.0540540541 L1.94594595,0.0540540541 L1.94594595,7.83783784 C1.94594595,9.85081081 3.24324324,11.1654054 5.01189189,11.1654054 L5.01189189,11.1654054 Z" id="Shape" fill="#FFFFFF"></path>
                                <path d="M42.0151351,0.0540540541 L50.8518919,0.0540540541 L50.8518919,2.21621622 L44.4021622,2.21621622 L44.4021622,5.28648649 L50.6724324,5.28648649 L50.6724324,7.37513514 L44.4021622,7.37513514 L44.4021622,10.4972973 L50.8518919,10.4972973 L50.8518919,12.6594595 L42.0151351,12.6594595 L42.0151351,0.0540540541 Z M75.2562162,12.8864865 C77.9654054,12.8864865 79.4918919,11.5891892 79.4918919,9.80756757 C79.4918919,8.53837838 78.5881081,7.59135135 76.6962162,7.18054054 L74.6962162,6.77189189 C73.5351351,6.55567568 73.1697297,6.33945946 73.1697297,5.90702703 C73.1697297,5.34702703 73.7297297,5.00324324 74.7610811,5.00324324 C75.8789189,5.00324324 76.707027,5.30378378 76.9232432,6.3372973 L79.267027,6.3372973 C79.1394595,4.39135135 77.7405405,3.10702703 74.9037838,3.10702703 C72.4518919,3.10702703 70.7308108,4.11891892 70.7308108,6.08 C70.7308108,7.43567568 71.6778378,8.31783784 73.7210811,8.74810811 L75.9567568,9.26486486 C76.8389189,9.43783784 77.0745946,9.67567568 77.0745946,10.0410811 C77.0745946,10.6227027 76.4086486,10.9881081 75.3318919,10.9881081 C73.9783784,10.9881081 73.2043243,10.6875676 72.9037838,9.65405405 L70.547027,9.65405405 C70.8908108,11.5956757 72.3308108,12.8864865 75.2562162,12.8864865 Z M69.8659459,12.6508108 L67.3297297,12.6508108 C65.7383784,12.6508108 64.8562162,11.6605405 64.8562162,10.4108108 L64.8562162,5.45945946 L63.0724324,5.45945946 L63.0724324,3.34918919 L64.8648649,3.34918919 L64.8648649,0.700540541 L67.2216216,0.700540541 L67.2216216,3.34918919 L69.8659459,3.34918919 L69.8659459,5.45945946 L67.2216216,5.45945946 L67.2216216,9.80756757 C67.2216216,10.3027027 67.5654054,10.5405405 68.1037838,10.5405405 L69.8659459,10.5405405 L69.8659459,12.6508108 Z M59.7037838,3.35351351 L59.7037838,4.19243243 C58.8739987,3.49099738 57.8216624,3.1077722 56.7351351,3.11135135 C54.9644701,3.07410719 53.3121342,3.99744082 52.4158755,5.52497544 C51.5196167,7.05251007 51.5196167,8.94532777 52.4158755,10.4728624 C53.3121342,12.000397 54.9644701,12.9237306 56.7351351,12.8864865 C57.8218609,12.8912034 58.8745784,12.5078394 59.7037838,11.8054054 L59.7037838,12.6464865 L62.0540541,12.6464865 L62.0540541,3.34918919 L59.7037838,3.35351351 Z M56.9297297,10.8454054 C55.7766882,10.8585585 54.7298872,10.1739918 54.2796953,9.11238683 C53.8295033,8.05078187 54.0650848,6.82239868 54.8760827,6.0026669 C55.6870807,5.18293512 56.91287,4.93420967 57.9792362,5.37300467 C59.0456024,5.81179967 59.7413424,6.85120801 59.7405405,8.00432432 C59.7474714,8.75503321 59.453801,9.47731834 58.9249818,10.0101992 C58.3961625,10.5430801 57.6761453,10.8422681 56.9254054,10.8410811 L56.9297297,10.8454054 Z" id="Shape" fill="#5FB709"></path>
                            </g>
                        </g>
                    </g>
                </g>
            </g>
        </g>
    </g>
</svg>