<?xml version="1.0" encoding="UTF-8"?>
<svg width="31px" height="31px" viewBox="0 0 31 31" version="1.1" xmlns="http://www.w3.org/2000/svg" xmlns:xlink="http://www.w3.org/1999/xlink">
    <!-- Generator: sketchtool 64 (101010) - https://sketch.com -->
    <title>7179A739-A1A1-4158-9C1B-A6E848E9EA86</title>
    <desc>Created with sketchtool.</desc>
    <g id="Homepage---Offers" stroke="none" stroke-width="1" fill="none" fill-rule="evenodd">
        <g id="SF,SC_02" transform="translate(-165.000000, -586.000000)" fill="#FFFFFF">
            <g id="hero" transform="translate(0.000000, 108.000000)">
                <g id="btn-pause" transform="translate(165.000000, 478.000000)">
                    <path d="M0,15.4809816 C0,6.92269939 6.92269939,0 15.4809816,0 C24.0392638,0 31,6.92269939 31,15.4809816 C31,24.0392638 24.0392638,31 15.4809816,31 C6.92269939,31 0,24.0392638 0,15.4809816 Z M16.6528926,21.2265595 L16.6528926,9.77344051 C16.6528926,8.49104495 17.6872635,7.42975207 18.9371283,7.42975207 L18.9371283,7.42975207 C20.2300919,7.42975207 21.2644628,8.49104495 21.2644628,9.77344051 L21.2644628,21.2265595 C21.2644628,22.5089551 20.2300919,23.5702479 18.9371283,23.5702479 L18.9371283,23.5702479 C17.6872635,23.5702479 16.6528926,22.5089551 16.6528926,21.2265595 Z M9.73553719,21.2265595 L9.73553719,9.77344051 C9.73553719,8.49104495 10.7699081,7.42975207 12.0197729,7.42975207 L12.0197729,7.42975207 C13.3127365,7.42975207 14.3471074,8.49104495 14.3471074,9.77344051 L14.3471074,21.2265595 C14.3471074,22.5089551 13.3127365,23.5702479 12.0197729,23.5702479 L12.0197729,23.5702479 C10.7699081,23.5702479 9.73553719,22.5089551 9.73553719,21.2265595 Z" id="pause_btn_wht"></path>
                </g>
            </g>
        </g>
    </g>
</svg>